<svg width="20" height="10" viewBox="0 0 20 10" fill="none" xmlns="http://www.w3.org/2000/svg">
<rect width="20" height="10" rx="2" fill="#9A1515"/>
<path d="M2.52344 8.58984C2.46875 8.57422 2.41406 8.54688 2.35938 8.50781C2.3125 8.46875 2.27734 8.42969 2.25391 8.39062C2.20703 8.1875 2.16406 7.97656 2.125 7.75781C2.09375 7.53906 2.06641 7.32031 2.04297 7.10156L2.00781 6.5625L1.89062 5.56641C1.875 4.98828 1.88672 4.30859 1.92578 3.52734C1.96484 2.74609 2.01172 1.96484 2.06641 1.18359C2.10547 1.14453 2.14844 1.12109 2.19531 1.11328C2.24219 1.09766 2.29688 1.08594 2.35938 1.07812L2.75781 1.26562C3.13281 2.36719 3.51953 3.41406 3.91797 4.40625C4.32422 5.39844 4.79688 6.41797 5.33594 7.46484L5.40625 7.47656C5.60938 6.86719 5.68359 6.28516 5.62891 5.73047C5.58203 5.16797 5.55469 4.56641 5.54688 3.92578L5.45312 3.22266L5.3125 1.65234L5.41797 1.37109C5.46484 1.33984 5.50781 1.32031 5.54688 1.3125C5.59375 1.29687 5.64844 1.28516 5.71094 1.27734C5.76562 1.28516 5.81641 1.3125 5.86328 1.35938C5.91797 1.39844 5.95312 1.4375 5.96875 1.47656L6.13281 3.15234L6.22656 3.85547C6.26562 4.66016 6.29297 5.40625 6.30859 6.09375C6.32422 6.78125 6.19922 7.5 5.93359 8.25C5.84766 8.28906 5.75781 8.33203 5.66406 8.37891C5.57812 8.42578 5.48047 8.45703 5.37109 8.47266C5.27734 8.43359 5.19922 8.37891 5.13672 8.30859C5.07422 8.23828 5.00781 8.16797 4.9375 8.09766C4.42969 7.26172 4.00391 6.44922 3.66016 5.66016C3.32422 4.86328 2.99609 4.01953 2.67578 3.12891H2.62891C2.58984 3.57422 2.5625 4.01953 2.54688 4.46484C2.53125 4.91016 2.53906 5.25 2.57031 5.48438L2.67578 6.49219L2.79297 7.69922L2.91016 8.32031C2.90234 8.36719 2.875 8.41406 2.82812 8.46094C2.78906 8.50781 2.74609 8.54297 2.69922 8.56641L2.52344 8.58984ZM8.66406 8.64844C8.57031 8.60938 8.47266 8.58984 8.37109 8.58984C8.26953 8.58203 8.1875 8.53906 8.125 8.46094C7.94531 7.98438 7.82422 7.51562 7.76172 7.05469C7.70703 6.59375 7.69141 6.08984 7.71484 5.54297L7.77344 4.03125L8.06641 2.33203C7.97266 2.31641 7.875 2.30078 7.77344 2.28516C7.67188 2.26172 7.58203 2.21484 7.50391 2.14453C7.46484 2.09766 7.44141 2.03906 7.43359 1.96875C7.42578 1.89063 7.42578 1.8125 7.43359 1.73438L7.46875 1.45312L7.75 1.46484L8.30078 1.53516C8.90234 1.51172 9.50781 1.49219 10.1172 1.47656C10.7266 1.46094 11.3281 1.42578 11.9219 1.37109L12.2734 1.54688C12.3125 1.625 12.3398 1.71484 12.3555 1.81641C12.3789 1.91016 12.3906 2.01562 12.3906 2.13281L12.2852 2.19141V2.23828C11.707 2.30859 11.1133 2.34766 10.5039 2.35547C9.89453 2.36328 9.35156 2.37891 8.875 2.40234C8.79688 2.54297 8.75391 2.67969 8.74609 2.8125C8.73828 2.94531 8.73438 3.07422 8.73438 3.19922C8.67188 3.48047 8.625 3.71484 8.59375 3.90234C8.57031 4.08984 8.53125 4.32422 8.47656 4.60547L8.92188 4.61719L9.89453 4.58203L10.8438 4.62891L11.6406 4.58203L11.9922 4.75781C12.0312 4.84375 12.0586 4.9375 12.0742 5.03906C12.0977 5.13281 12.1094 5.23438 12.1094 5.34375L11.9805 5.47266L11.418 5.50781L10.4805 5.46094L8.58203 5.50781L8.44141 5.46094V5.57812C8.42578 5.98438 8.43359 6.35547 8.46484 6.69141C8.49609 7.02734 8.55078 7.38672 8.62891 7.76953L8.93359 7.78125C9.38672 7.77344 9.83594 7.72656 10.2812 7.64062C10.7344 7.54688 11.1719 7.46094 11.5938 7.38281L11.9453 7.55859C11.9844 7.65234 12.0117 7.74609 12.0273 7.83984C12.0508 7.93359 12.0625 8.03516 12.0625 8.14453L11.9336 8.28516C11.4102 8.41797 10.875 8.51562 10.3281 8.57812C9.78125 8.64062 9.22656 8.66406 8.66406 8.64844ZM14.5469 7.96875C14.4141 7.9375 14.2773 7.89453 14.1367 7.83984C14.0039 7.78516 13.8984 7.69141 13.8203 7.55859C13.5547 6.84766 13.3633 6.125 13.2461 5.39062C13.1367 4.64844 13.0859 3.89844 13.0938 3.14062L13.1758 2.80078H13.2227L13.293 2.83594L13.3867 2.82422L13.7148 3.02344C13.7695 3.67188 13.832 4.32422 13.9023 4.98047C13.9805 5.62891 14.1289 6.25391 14.3477 6.85547C14.5586 6.51953 14.7344 6.15625 14.875 5.76562C15.0234 5.36719 15.1367 4.95703 15.2148 4.53516L15.2617 4.54688L15.332 4.58203L15.4258 4.55859L15.7891 4.76953C15.8672 5.16016 15.9297 5.55469 15.9766 5.95312C16.0312 6.35156 16.1562 6.72656 16.3516 7.07812L16.4219 7.11328C17.0078 6.50391 17.4336 5.82031 17.6992 5.0625C17.9648 4.29688 18.1523 3.50391 18.2617 2.68359L18.3086 2.69531L18.3789 2.71875L18.4727 2.70703L18.8008 2.91797C18.8867 3.09766 18.9141 3.29688 18.8828 3.51562C18.8516 3.73438 18.8242 3.94141 18.8008 4.13672C18.6602 4.87891 18.4414 5.59375 18.1445 6.28125C17.8555 6.96875 17.4219 7.57812 16.8438 8.10938L16.6797 8.13281C16.4922 8.10938 16.3281 8.05078 16.1875 7.95703C16.0547 7.86328 15.9336 7.74219 15.8242 7.59375C15.7539 7.46094 15.6836 7.32812 15.6133 7.19531C15.5508 7.0625 15.5 6.92188 15.4609 6.77344L15.4141 6.76172C15.3359 6.95703 15.25 7.15234 15.1562 7.34766C15.0625 7.54297 14.9258 7.71875 14.7461 7.875L14.5469 7.96875Z" fill="white"/>
</svg>
